<svg width="148" height="119" viewBox="0 0 148 119" fill="none" xmlns="http://www.w3.org/2000/svg">
<path d="M74.3361 68.1085C33.9298 69.0203 9.28802 61.6496 2.01794 57.8503C2.01794 51.0114 0.870028 32.7746 16.9407 31.6348C29.7973 30.723 46.0211 19.8569 52.5259 14.5378V2H91.5548V13.398C91.5548 19.097 112.217 25.9358 129.436 31.6348C143.211 36.194 145.889 51.0114 145.506 57.8503C138.619 60.8897 114.743 67.1966 74.3361 68.1085Z" fill="#EDEDED" stroke="#888F96" stroke-width="3"/>
<path d="M107.172 99.1191L106.129 116.998H37.9677L36.8515 99.1191C19.0261 92.4273 25.7166 74.1409 29.0381 60.0093C17.2852 53.5988 7.457 51.352 2.62012 46.8823C2.62012 35.5066 13.1685 30.9563 16.8914 31.9904C24.9016 38.695 47.3433 52.1873 71.4533 52.1873C95.5633 52.1873 120.685 39.0675 129.614 31.9905C139.749 33.6451 144.092 46.4686 143.886 46.8823C143.679 47.296 123.171 57.7745 117.218 60.0093C119.27 76.4434 126.512 91.144 107.172 99.1191Z" fill="white" stroke="#888F96" stroke-width="3"/>
</svg>
