<svg width="20" height="20" viewBox="0 0 20 20" fill="none" xmlns="http://www.w3.org/2000/svg">
<path d="M18.2959 20L11.4131 13.1164C8.35124 15.2931 4.13216 14.7607 1.70715 11.8916C-0.717861 9.02253 -0.539799 4.77397 2.11678 2.11786C4.77266 -0.539419 9.02188 -0.71824 11.8917 1.7065C14.7614 4.13124 15.2942 8.35047 13.1172 11.4124L20 18.296L18.2971 19.9988L18.2959 20ZM7.22558 2.40927C4.9418 2.40876 2.97149 4.01178 2.50756 6.24781C2.04363 8.48384 3.21358 10.7383 5.30909 11.6463C7.4046 12.5543 9.84971 11.8662 11.1641 9.99863C12.4784 8.13108 12.3007 5.59736 10.7386 3.93148L11.4673 4.65404L10.6459 3.83514L10.6315 3.82069C9.73035 2.91409 8.50386 2.40583 7.22558 2.40927Z" fill="#434A54"/>
</svg>
