<svg width="25" height="25" viewBox="0 0 25 25" fill="none" xmlns="http://www.w3.org/2000/svg">
<path d="M22.1545 24.22L13.8201 15.884C10.1125 18.5199 5.00364 17.8752 2.06719 14.4007C-0.869259 10.9263 -0.653643 5.78128 2.56321 2.56473C5.77922 -0.653236 10.9246 -0.869789 14.3996 2.06657C17.8746 5.00293 18.5197 10.1124 15.8836 13.8204L24.218 22.1564L22.1559 24.2185L22.1545 24.22ZM8.74946 2.91763C5.98403 2.91701 3.59818 4.85826 3.0364 7.5661C2.47463 10.2739 3.89133 13.0041 6.42878 14.1037C8.96624 15.2032 11.927 14.3699 13.5186 12.1083C15.1101 9.84674 14.895 6.7784 13.0034 4.76102L13.8857 5.63604L12.8911 4.64436L12.8736 4.62686C11.7825 3.52896 10.2973 2.91346 8.74946 2.91763Z" fill="#142149"/>
</svg>
