<svg width="76" height="58" viewBox="0 0 76 58" fill="none" xmlns="http://www.w3.org/2000/svg">
<g clip-path="url(#clip0)">
<path d="M65.04 0H10.98C4.92 0 0 4.7799 0 10.6673V47.3521C0 53.2395 4.92 58.0194 10.98 58.0194H65.04C71.1 58.0194 76.02 53.2395 76.02 47.3521V10.6673C76 4.7799 71.08 0 65.04 0ZM65.04 5.09079C65.48 5.09079 65.92 5.14908 66.34 5.24623L43.54 30.3893C42.14 31.9243 40.12 32.8181 38.02 32.8181C35.9 32.8181 33.9 31.9437 32.5 30.3893L9.68 5.24623C10.1 5.14908 10.54 5.09079 10.98 5.09079H65.04ZM70.76 47.3521C70.76 50.4221 68.2 52.9092 65.04 52.9092H10.98C7.82 52.9092 5.26 50.4221 5.26 47.3521V10.6673C5.26 9.92898 5.42 9.21005 5.68 8.54941L28.54 33.7508C30.94 36.3933 34.38 37.9089 38 37.9089C41.62 37.9089 45.06 36.3933 47.46 33.7508L70.34 8.54941C70.62 9.19062 70.76 9.90955 70.76 10.6673V47.3521Z" fill="#535D68"/>
</g>
<defs>
<clipPath id="clip0">
<rect width="76" height="58" fill="white"/>
</clipPath>
</defs>
</svg>
