<svg width="144" height="117" viewBox="0 0 144 117" fill="none" xmlns="http://www.w3.org/2000/svg">
<path d="M126.013 30.3233C139.391 34.7396 141.992 49.0928 141.621 55.7173L119.975 62.9893L70.0311 86.0039L25.8499 62.9893L2.26742 55.7173C2.26742 49.0928 1.15259 31.4274 16.7602 30.3233C29.2462 29.44 45.0025 18.9144 51.3198 13.7619V1.61694H89.2239V12.6578C89.2239 18.1783 109.291 24.8028 126.013 30.3233Z" fill="#EDEDED" stroke="#888F96" stroke-width="3"/>
<path d="M85.0339 41.1882L107.941 24.1615L94.0833 17.9566L71.8943 33.4416L46.5122 17.3361L34.1024 24.782L58.7036 41.1369L25.8291 63.1966C25.8291 63.1966 25.8292 78.4083 25.8291 85.2051C25.8291 92.002 32.1688 96.235 35.6966 96.235L38.9687 114.96H104.769L106.967 96.235C110.239 95.1577 116.835 91.4127 116.835 85.2051V63.1966L85.0339 41.1882ZM60.4419 53.0389L72.2011 44.3176L82.9377 53.0389H60.4419Z" fill="white" stroke="#888F96" stroke-width="3"/>
</svg>
