<svg width="139" height="116" viewBox="0 0 139 116" fill="none" xmlns="http://www.w3.org/2000/svg">
<path d="M121.602 30.0958C134.583 34.3823 137.107 48.3133 136.747 54.743L115.743 61.801L67.2815 84.1388L24.4113 61.801L1.52862 54.743C1.52862 48.3133 0.446874 31.1674 15.5913 30.0958C27.7069 29.2385 42.9956 19.0224 49.1255 14.0215V2.23376H85.9048V12.9499C85.9048 18.308 105.376 24.7377 121.602 30.0958Z" fill="#EDEDED" stroke="#888F96" stroke-width="3"/>
<path d="M104.779 92.9754V114.214H33.8658V92.9754C29.1383 92.9754 23.2288 84.3228 20.865 79.9965C18.0285 72.4452 19.6831 60.3316 20.865 55.2187C25.5926 53.2522 38.9183 47.1101 67.2836 46.1661C95.6488 45.2222 113.052 52.4656 116.598 55.2187C119.434 67.4896 117.78 76.8502 116.598 79.9965C115.652 86.604 108.325 91.4022 104.779 92.9754Z" fill="white" stroke="#888F96" stroke-width="3"/>
</svg>
