<svg width="131" height="117" viewBox="0 0 131 117" fill="none" xmlns="http://www.w3.org/2000/svg">
<path d="M114.859 27.7904C127.046 31.817 129.416 44.9038 129.077 50.9438L109.358 57.5741L63.8604 78.558L23.6123 57.5741L2.12915 50.9438C2.12915 44.9038 1.11357 28.797 15.3317 27.7904C26.7063 26.985 41.0599 17.3881 46.8149 12.6903V1.61694H81.3447V11.6836C81.3447 16.717 99.6253 22.757 114.859 27.7904Z" fill="#EDEDED" stroke="#888F96" stroke-width="3"/>
<path d="M98.7747 99.4046V114.96H30.8023V99.4046C6.88503 81.5179 27.4809 45.003 32.5169 22.2483C38.3082 18.577 37.4809 19.4044 39.756 17.9565L39.7167 50.5155C49.5226 55.8489 60.8885 68.2934 65.3457 73.849C70.9174 69.4045 82.4316 55.7007 90.9746 50.5155V19.4044C90.9746 19.4044 96.1747 20.8858 96.5461 21.6266C104.086 44.182 125.315 82.5638 98.7747 99.4046Z" fill="white" stroke="#888F96" stroke-width="3"/>
</svg>
