<svg width="139" height="117" viewBox="0 0 139 117" fill="none" xmlns="http://www.w3.org/2000/svg">
<path d="M121.823 29.479C134.804 33.7654 137.328 47.6965 136.968 54.1262L115.964 61.1842L67.5022 83.5219L24.632 61.1842L1.74932 54.1262C1.74932 47.6965 0.667578 30.5506 15.812 29.479C27.9276 28.6217 43.2163 18.4056 49.3462 13.4047V1.61694H86.1255V12.3331C86.1255 17.6912 105.597 24.1209 121.823 29.479Z" fill="#EDEDED" stroke="#888F96" stroke-width="3"/>
<path d="M17.5753 56.6172C25.3919 28.7913 69.1439 36.1552 70.3674 62.6532C71.4991 36.1552 113.402 28.7913 121.163 56.6172C125.722 79.4968 112.504 80.7848 108.628 92.0806C106.317 98.8157 107.4 105.989 106.349 114.96H69.2216H32.4958C31.437 105.989 32.5281 98.8157 30.2005 92.0806C26.2967 80.7848 12.9838 79.4968 17.5753 56.6172Z" fill="white" stroke="#888F96" stroke-width="3"/>
</svg>
