<svg width="52" height="52" viewBox="0 0 52 52" fill="none" xmlns="http://www.w3.org/2000/svg">
<path d="M25.9999 45.5002C23.2633 43.1659 20.7267 40.6069 18.4166 37.8497C14.9499 33.7092 10.8333 27.5429 10.8333 21.6669C10.8302 15.5299 14.5258 9.99591 20.1956 7.64726C25.8653 5.29861 32.3917 6.59825 36.7293 10.9397C39.5816 13.7794 41.1794 17.6421 41.1667 21.6669C41.1667 27.5429 37.0499 33.7092 33.5833 37.8497C31.2732 40.6069 28.7366 43.1659 25.9999 45.5002ZM25.9999 15.1669C23.6777 15.1669 21.5319 16.4058 20.3708 18.4169C19.2096 20.428 19.2096 22.9058 20.3708 24.9169C21.5319 26.928 23.6777 28.1669 25.9999 28.1669C29.5898 28.1669 32.4999 25.2567 32.4999 21.6669C32.4999 18.077 29.5898 15.1669 25.9999 15.1669Z" fill="#535D68"/>
</svg>
