<svg width="52" height="52" viewBox="0 0 52 52" fill="none" xmlns="http://www.w3.org/2000/svg">
<path d="M26.0002 45.5001C23.2635 43.1658 20.7269 40.6067 18.4168 37.8496C14.9502 33.7091 10.8335 27.5428 10.8335 21.6668C10.8304 15.5298 14.526 9.99579 20.1958 7.64714C25.8656 5.29849 32.392 6.59813 36.7295 10.9396C39.5818 13.7793 41.1796 17.642 41.1669 21.6668C41.1669 27.5428 37.0502 33.7091 33.5835 37.8496C31.2734 40.6067 28.7368 43.1658 26.0002 45.5001ZM26.0002 15.1668C23.6779 15.1668 21.5321 16.4057 20.371 18.4168C19.2099 20.4279 19.2099 22.9057 20.371 24.9168C21.5321 26.9279 23.6779 28.1668 26.0002 28.1668C29.59 28.1668 32.5002 25.2566 32.5002 21.6668C32.5002 18.0769 29.59 15.1668 26.0002 15.1668Z" fill="#142149"/>
</svg>
