<svg width="305" height="91" viewBox="0 0 305 91" fill="none" xmlns="http://www.w3.org/2000/svg">
<path d="M94.3827 0H84.5786V50.5147H94.3827V0Z" fill="white"/>
<path d="M137.452 0H123.405C130.599 4.70817 135.209 12.4325 135.209 24.3255C135.209 37.9351 129.087 46.1253 119.966 50.5392H135.672C141.525 44.0655 145.013 35.2377 145.013 23.9087C145.013 14.0509 142.208 6.1059 137.452 0Z" fill="white"/>
<path d="M220.421 27.1456V24.0068H179.547V33.0308H209.569C209.349 39.995 205.374 46.2235 199.862 50.5393H213.129C217.714 44.0901 220.421 36.096 220.421 27.1456Z" fill="white"/>
<path d="M150.354 24.5217C150.354 34.2078 153.817 43.3544 159.597 50.5147H173.425C165.401 44.4333 160.158 34.4775 160.158 24.2029C160.158 14.4923 164.377 5.88521 171.011 0H158.304C153.329 6.8906 150.354 15.3506 150.354 24.5217Z" fill="white"/>
<path d="M2.51199 73.3199H4.34112C6.99944 73.3199 9.26755 73.6877 11.3162 75.5269C13.2672 77.2434 14.2428 79.7201 14.2428 82.3194C14.2428 84.8451 13.2916 87.2237 11.4381 88.9402C10.2187 90.1173 8.90173 90.7058 7.46282 91H12.8039C12.9014 90.9265 12.999 90.8529 13.0965 90.7548C15.5841 88.5233 16.7548 85.6298 16.7548 82.3194C16.7548 78.9599 15.5841 75.9192 13.0234 73.7122C10.365 71.4317 7.60915 70.9658 4.24356 70.9658H0V90.9755H2.51199V73.3199Z" fill="white"/>
<path d="M25.7784 70.9658H23.2664V90.9755H25.7784V70.9658Z" fill="white"/>
<path d="M36.7044 87.199L41.5821 76.2378L47.8743 90.9999H50.6545L41.6309 69.8867L32.3877 90.9999H35.1192L36.7044 87.199Z" fill="white"/>
<path d="M59.8489 76.1637L73.9453 90.9994H77.4085V70.9651H74.8965V88.4981L57.3369 70.0088V90.9994H59.8489V76.1637Z" fill="white"/>
<path d="M88.432 87.199L93.3096 76.2378L99.6018 90.9999H102.382L93.3828 69.8867L84.1152 90.9999H86.8467L88.432 87.199Z" fill="white"/>
<path d="M123.6 73.3199H125.429C128.087 73.3199 130.355 73.6877 132.404 75.5269C134.331 77.2434 135.331 79.7201 135.331 82.3194C135.331 84.8451 134.38 87.2237 132.526 88.9402C131.307 90.1173 129.99 90.7058 128.551 91H133.892C133.989 90.9265 134.087 90.8529 134.184 90.7548C136.648 88.5233 137.843 85.6298 137.843 82.3194C137.843 78.9599 136.672 75.9192 134.111 73.7122C131.453 71.4317 128.697 70.9658 125.331 70.9658H121.088V90.9755H123.6V73.3199Z" fill="white"/>
<path d="M146.891 70.9658H144.379V90.9755H146.891V70.9658Z" fill="white"/>
<path d="M185.229 90.2148C187.302 87.8117 187.619 85.2859 187.57 82.2207H178.181V84.5748H184.863C184.863 87.591 182.742 89.9205 180.108 90.9995H184.473C184.741 90.7543 184.985 90.4845 185.229 90.2148Z" fill="white"/>
<path d="M170.45 88.7683C168.767 87.0518 167.816 84.7713 167.816 82.3682C167.816 77.2677 171.864 72.9273 177.01 72.9273C180.327 72.9273 182.863 74.5212 184.741 77.1941L186.57 75.4776C184.18 72.3633 180.985 70.5732 177.059 70.5732C170.572 70.5732 165.328 75.8699 165.328 82.3437C165.328 85.7522 166.84 88.8419 169.206 90.9753H173.766C172.498 90.4848 171.352 89.7002 170.45 88.7683Z" fill="white"/>
<path d="M196.667 70.9658H194.155V90.9755H196.667V70.9658Z" fill="white"/>
<path d="M205.569 82.2946C205.569 77.1696 209.617 72.9273 214.788 72.9273C219.958 72.9273 224.006 77.1696 224.006 82.2946C224.006 86.1936 221.592 89.6021 218.153 90.9998H222.616C225.006 88.8664 226.518 85.8012 226.518 82.3191C226.518 75.8454 221.202 70.5732 214.788 70.5732C208.374 70.5732 203.057 75.8209 203.057 82.3191C203.057 85.7767 204.569 88.8664 206.935 90.9998H211.398C208.008 89.6021 205.569 86.1936 205.569 82.2946Z" fill="white"/>
<path d="M235.42 83.6682H238.761L243.761 90.9756H246.785L241.468 83.4475C244.932 83.1532 247.102 80.701 247.102 77.1944C247.102 72.0939 243.127 70.9414 238.859 70.9414H232.908V90.9511H235.42V83.6682ZM235.42 73.32H238.883C241.907 73.32 244.615 73.6878 244.615 77.4151C244.615 80.9217 241.737 81.4612 238.908 81.4612H235.42V73.32Z" fill="white"/>
<path d="M257.443 76.1637L271.539 90.9994H275.002V70.9651H272.515V88.4981L254.955 70.0088V90.9994H257.443V76.1637Z" fill="white"/>
<path d="M284.051 82.2946C284.051 77.1696 288.099 72.9273 293.269 72.9273C298.415 72.9273 302.488 77.1696 302.488 82.2946C302.488 86.1936 300.074 89.6021 296.635 90.9998H301.098C303.488 88.8664 304.976 85.8012 304.976 82.3191C304.976 75.8454 299.659 70.5732 293.245 70.5732C286.806 70.5732 281.514 75.8209 281.514 82.3191C281.514 85.7767 283.026 88.8664 285.416 90.9998H289.879C286.465 89.6021 284.051 86.1936 284.051 82.2946Z" fill="white"/>
<path d="M224.445 24.0069C224.445 21.7754 226.226 19.9854 228.445 19.9854C230.689 19.9854 232.469 21.7754 232.469 24.0069C232.469 26.2384 230.689 28.0285 228.445 28.0285C226.201 28.0285 224.445 26.2384 224.445 24.0069ZM225.079 24.0069C225.079 25.8951 226.616 27.3664 228.421 27.3664C230.25 27.3664 231.786 25.8951 231.786 24.0069C231.786 22.0942 230.25 20.6474 228.421 20.6474C226.616 20.6474 225.079 22.1187 225.079 24.0069ZM230.274 26.3119H229.542L228.396 24.2276H227.543V26.3119H226.884V21.7754H228.786C229.591 21.7754 230.323 22.0207 230.323 22.977C230.323 23.8598 229.713 24.2031 229.128 24.2276L230.274 26.3119ZM227.543 22.4375V23.5655H228.226C228.835 23.5655 229.664 23.6636 229.664 23.0506C229.664 22.4866 229.177 22.4375 228.664 22.4375H227.543Z" fill="white"/>
</svg>
