<svg width="150" height="101" viewBox="0 0 150 101" fill="none" xmlns="http://www.w3.org/2000/svg">
<path d="M49.7119 71.9796L40.7267 72.0238L7.27708 36.6176L7.43721 72.183L0.204612 72.2184L0 28.8429L8.97625 28.7899L42.4615 64.2226L42.3014 28.6484L49.5251 28.613L49.7119 71.9796Z" fill="white"/>
<path d="M70.8833 101L70.8121 84.3273L77.2618 84.292L77.3419 100.965L70.8833 101ZM70.5007 16.7257L70.4296 0.0265347L76.8793 0L76.9594 16.6992L70.5007 16.7257Z" fill="white"/>
<path d="M70.6251 44.8259L70.554 28.1267L77.0126 28.0913L77.0927 44.7993L70.6251 44.8259Z" fill="white"/>
<path d="M70.7589 72.9083L70.6699 56.2268L77.1374 56.1915L77.2086 72.8818L70.7589 72.9083Z" fill="white"/>
<path d="M149.139 71.1253L140.741 71.1518L128.847 54.6737L106.847 54.7622L106.918 71.3022L99.6852 71.3375L99.4895 27.9621L133.891 27.8118C138.464 27.8029 142.067 29.0058 144.691 31.4559C147.315 33.8971 148.614 37.2227 148.641 41.3975C148.65 45.077 147.618 48.0401 145.483 50.2867C143.543 52.3741 140.821 53.7185 137.396 54.2669L149.139 71.1253ZM132.895 48.1993C138.481 48.1727 141.266 45.9261 141.239 41.4594C141.213 36.6655 138.179 34.2774 132.156 34.3039L106.74 34.4189L106.811 48.3143L132.895 48.1993Z" fill="white"/>
</svg>
