<svg width="117" height="40" viewBox="0 0 117 40" fill="none" xmlns="http://www.w3.org/2000/svg">
<g clip-path="url(#clip0)">
<path d="M7.76679 0H0V40H7.76679V0Z" fill="white"/>
<path d="M41.8285 0H30.7161C36.4053 3.7306 40.0509 9.84195 40.0509 19.251C40.0509 30.0327 35.2108 36.5029 27.9932 40H40.4189C45.0552 34.874 47.8177 27.8855 47.8177 18.915C47.8177 11.1235 45.5986 4.82984 41.8285 0Z" fill="white"/>
<path d="M107.49 21.4951V19.0005H75.1487V26.1427H98.9076C98.7321 31.656 95.579 36.5827 91.2314 40.0058H101.727C105.35 34.9139 107.49 28.5804 107.49 21.4951Z" fill="white"/>
<path d="M52.0522 19.4162C52.0522 27.0881 54.7978 34.3158 59.3605 40H70.3087C63.9572 35.1872 59.819 27.3103 59.819 19.1656C59.819 11.4709 63.159 4.66467 68.4123 0H58.3529C54.4072 5.45066 52.0522 12.16 52.0522 19.4162Z" fill="white"/>
<path d="M110.66 19.0119C110.66 17.2406 112.058 15.8281 113.824 15.8281C115.602 15.8281 117 17.2349 117 19.0119C117 20.7833 115.602 22.1958 113.824 22.1958C112.058 22.1901 110.66 20.7833 110.66 19.0119ZM111.169 19.0119C111.169 20.5099 112.375 21.6775 113.824 21.6775C115.273 21.6775 116.485 20.5099 116.485 19.0119C116.485 17.5083 115.273 16.3464 113.824 16.3464C112.381 16.3464 111.169 17.5026 111.169 19.0119ZM115.273 20.8231H114.685L113.779 19.1714H113.117V20.8231H112.601V17.2406H114.102C114.741 17.2406 115.324 17.4343 115.324 18.1861C115.324 18.8923 114.849 19.1486 114.373 19.1657L115.273 20.8231ZM113.117 17.7589V18.6474H113.666C114.152 18.6474 114.809 18.7329 114.809 18.243C114.809 17.7874 114.43 17.7589 114.011 17.7589H113.117Z" fill="white"/>
</g>
<defs>
<clipPath id="clip0">
<rect width="117" height="40" fill="white"/>
</clipPath>
</defs>
</svg>
