<svg width="136" height="51" viewBox="0 0 136 51" fill="none" xmlns="http://www.w3.org/2000/svg">
<path d="M9.80408 0H0V50.5147H9.80408V0Z" fill="white"/>
<path d="M52.8739 0H38.8262C46.0207 4.70817 50.6301 12.4325 50.6301 24.3255C50.6301 37.9351 44.5087 46.1253 35.3875 50.5392H51.0935C56.9467 44.0655 60.4342 35.2377 60.4342 23.9087C60.4342 14.0509 57.6296 6.1059 52.8739 0Z" fill="white"/>
<path d="M135.843 27.1456V24.0068H94.968V33.0308H124.99C124.771 39.995 120.795 46.2235 115.283 50.5393H128.551C133.136 44.0901 135.843 36.096 135.843 27.1456Z" fill="white"/>
<path d="M65.7751 24.5217C65.7751 34.2078 69.2383 43.3544 75.0183 50.5147H88.8465C80.8227 44.4333 75.5792 34.4775 75.5792 24.2029C75.5792 14.4923 79.7984 5.88521 86.432 0H73.7257C68.7505 6.8906 65.7751 15.3506 65.7751 24.5217Z" fill="white"/>
</svg>
