<svg width="197" height="31" viewBox="0 0 197 31" fill="none" xmlns="http://www.w3.org/2000/svg">
<path d="M15.275 22.0928L12.5141 22.1063L2.23603 11.2391L2.28523 22.1552L0.0628712 22.1661L0 8.85281L2.75813 8.83652L13.0471 19.7119L12.9979 8.79309L15.2176 8.78223L15.275 22.0928Z" fill="white"/>
<path d="M21.532 31L21.5102 25.8826L23.492 25.8718L23.5166 30.9891L21.532 31ZM21.4145 5.13364L21.3926 0.00814432L23.3744 0L23.399 5.12549L21.4145 5.13364Z" fill="white"/>
<path d="M45.3739 21.9597L42.6076 21.9733L32.3295 11.106L32.3787 22.0167L30.1563 22.0276L30.0962 8.71704L32.8543 8.70347L43.1379 19.5788L43.0859 8.65731L45.3083 8.64917L45.3739 21.9597Z" fill="white"/>
<path d="M66.7118 21.8674L64.2844 21.8728L62.7236 18.9028L53.7002 18.9408L52.1721 21.9271L49.7366 21.938L56.7645 8.59756L59.5609 8.58398L66.7118 21.8674ZM61.6411 16.9265L58.1996 10.4925L54.769 16.9563L61.6411 16.9265Z" fill="white"/>
<path d="M93.6781 21.7481L91.0976 21.7563L87.4429 16.6986L80.6829 16.7258L80.7047 21.8024L78.4824 21.8133L78.4222 8.50002L88.9928 8.45387C90.3978 8.45116 91.5049 8.82037 92.3113 9.57236C93.1177 10.3216 93.5168 11.3424 93.525 12.6238C93.5277 13.7531 93.2106 14.6626 92.5546 15.3521C91.9587 15.9928 91.1222 16.4054 90.0698 16.5738L93.6781 21.7481ZM88.6866 14.7114C90.4033 14.7033 91.2589 14.0137 91.2507 12.6428C91.2425 11.1714 90.3103 10.4384 88.4597 10.4465L80.6501 10.4818L80.6719 14.7467L88.6866 14.7114Z" fill="white"/>
<path d="M113.023 21.6612L98.9948 21.7209L98.9346 8.41034L112.441 8.3479L112.449 10.3378L101.165 10.3867L101.182 13.8073L109.03 13.7693L109.038 15.7538L101.19 15.7891L101.206 19.7255L113.012 19.6767L113.023 21.6612Z" fill="white"/>
<path d="M129.927 11.3994C127.94 10.4058 125.912 9.90629 123.851 9.91715C122.481 9.92258 121.437 10.0909 120.713 10.4112C119.983 10.7316 119.622 11.1768 119.625 11.7415C119.627 12.3306 120.016 12.7595 120.797 13.0201C121.35 13.2183 122.26 13.3486 123.517 13.4138C125.368 13.5305 126.593 13.6228 127.18 13.6961C128.864 13.9024 130.105 14.3097 130.906 14.9069C131.715 15.5014 132.122 16.3512 132.125 17.4561C132.131 18.865 131.505 19.9591 130.247 20.7355C128.995 21.5147 127.188 21.911 124.832 21.9164C121.412 21.9327 118.75 21.197 116.845 19.7121L118.058 18.1076C120.163 19.3727 122.421 19.9971 124.838 19.989C126.409 19.9835 127.62 19.7609 128.481 19.3293C129.312 18.9085 129.722 18.3357 129.722 17.6108C129.717 16.7692 129.168 16.2046 128.085 15.9249C127.514 15.7838 125.983 15.6372 123.49 15.4851C121.279 15.3494 119.731 15.0616 118.84 14.6273C117.801 14.1115 117.282 13.2509 117.274 12.0401C117.266 10.7886 117.853 9.7977 119.026 9.06742C120.204 8.34529 121.864 7.97337 124.009 7.96522C126.896 7.95436 129.318 8.59505 131.275 9.90086L129.927 11.3994Z" fill="white"/>
<path d="M151.481 21.4875L137.453 21.5472L137.39 8.23938L150.902 8.18237L150.915 10.1723L139.626 10.2212L139.64 13.6391L147.488 13.6011L147.493 15.5883L139.648 15.6236L139.664 19.5573L151.473 19.5084L151.481 21.4875Z" fill="white"/>
<path d="M171.898 21.3952L169.137 21.4088L158.859 10.5443L158.908 21.4577L156.68 21.4685L156.623 8.15256L159.381 8.14441L169.665 19.0171L169.618 8.09555L171.838 8.0874L171.898 21.3952Z" fill="white"/>
<path d="M189.937 11.1278C187.944 10.1369 185.918 9.63743 183.86 9.651C182.49 9.65372 181.441 9.82203 180.716 10.1424C179.987 10.4627 179.626 10.9107 179.626 11.4753C179.634 12.0617 180.025 12.4907 180.801 12.7513C181.356 12.9495 182.266 13.0798 183.526 13.1449C185.377 13.2562 186.599 13.3485 187.195 13.4273C188.87 13.6363 190.114 14.0381 190.918 14.638C191.722 15.238 192.126 16.085 192.132 17.1872C192.14 18.5989 191.514 19.693 190.259 20.4667C189.002 21.2458 187.195 21.6367 184.841 21.6503C181.424 21.6639 178.762 20.9336 176.851 19.4459L178.07 17.8415C180.17 19.1066 182.436 19.7337 184.855 19.7201C186.418 19.712 187.635 19.4921 188.493 19.0604C189.319 18.6369 189.729 18.0668 189.723 17.342C189.723 16.5004 189.179 15.9357 188.091 15.6642C187.526 15.5149 185.992 15.371 183.499 15.2217C181.293 15.086 179.735 14.7982 178.849 14.3639C177.811 13.848 177.289 12.9902 177.283 11.7767C177.275 10.5279 177.865 9.53427 179.038 8.80671C180.205 8.08186 181.87 7.71265 184.016 7.7018C186.905 7.69094 189.324 8.33162 191.279 9.63472L189.937 11.1278Z" fill="white"/>
<path d="M21.4527 13.7584L21.4308 8.63293L23.4154 8.62207L23.44 13.7503L21.4527 13.7584Z" fill="white"/>
<path d="M21.4938 22.378L21.4664 17.2579L23.4537 17.2471L23.4756 22.3698L21.4938 22.378Z" fill="white"/>
<path d="M197 9.68636C197 10.2375 196.792 10.7125 196.388 11.1116C195.983 11.508 195.491 11.7089 194.906 11.7089C194.351 11.7089 193.881 11.508 193.49 11.1116C193.105 10.7125 192.911 10.2239 192.911 9.64563C192.911 9.10811 193.113 8.6466 193.512 8.24752C193.914 7.85931 194.395 7.66113 194.95 7.66113C195.529 7.66113 196.016 7.8566 196.41 8.24209C196.803 8.63302 197 9.11625 197 9.68636ZM196.697 9.68636C196.697 9.20041 196.527 8.79862 196.199 8.46742C195.868 8.14436 195.453 7.97605 194.953 7.97605C194.466 7.97605 194.059 8.14436 193.728 8.46742C193.394 8.79862 193.233 9.20313 193.233 9.68636C193.233 10.1696 193.397 10.5768 193.733 10.9107C194.072 11.2474 194.474 11.4211 194.953 11.4211C195.442 11.4211 195.857 11.2474 196.191 10.9107C196.524 10.5768 196.697 10.1696 196.697 9.68636ZM195.877 10.7886H195.352L194.933 9.88182H194.619V10.7886H194.157V8.59502H194.936C195.562 8.59502 195.879 8.80405 195.879 9.2357C195.879 9.50718 195.718 9.69993 195.404 9.81395L195.877 10.7886ZM194.933 9.58319C195.223 9.58319 195.371 9.4746 195.371 9.26285C195.371 9.05381 195.215 8.94794 194.906 8.94794H194.616V9.58319H194.933Z" fill="white"/>
</svg>
