<svg width="20" height="27" viewBox="0 0 20 27" fill="none" xmlns="http://www.w3.org/2000/svg">
    <g clip-path="url(#clip0)">
        <path fill-rule="evenodd" clip-rule="evenodd" d="M8.36503 17.6123C8.34313 17.6886 8.32123 17.7573 8.30663 17.8183C7.35773 21.7027 7.25554 22.5651 6.27743 24.3737C5.81028 25.2285 5.29203 26.045 4.70809 26.8234C4.6424 26.915 4.584 27.0218 4.45262 26.9989C4.30663 26.9608 4.29933 26.8311 4.27743 26.709C4.12415 25.5261 4.03656 24.3432 4.07306 23.1527C4.12415 21.6035 4.30663 21.0693 6.21904 12.6519C6.24824 12.5221 6.21904 12.4153 6.17524 12.3008C5.71539 11.0111 5.6278 9.6985 6.02926 8.363C6.89787 5.49358 10.0074 5.27227 10.5548 7.63801C10.8906 9.10324 10.0001 11.0187 9.32123 13.8576C8.75919 16.1928 11.3869 17.8565 13.6424 16.1547C15.7154 14.5826 16.5256 10.8051 16.3723 8.13405C16.0731 2.79968 10.4818 1.64734 6.93437 3.36441C2.86868 5.33332 1.94167 10.599 3.78108 13.0105C4.01466 13.3158 4.18984 13.5066 4.11685 13.8118C4.00006 14.2926 3.89787 14.781 3.76649 15.2618C3.6716 15.6205 3.38692 15.7502 3.04386 15.6052C2.36503 15.3229 1.80298 14.865 1.34313 14.2774C-0.226215 12.255 -0.67147 8.26379 1.38692 4.88306C3.6716 1.13603 7.92707 -0.382624 11.803 0.0752621C16.438 0.624725 19.365 3.93677 19.9125 7.69143C20.1606 9.40087 19.9855 13.6211 17.6862 16.6049C15.0439 20.0315 10.7592 20.2604 8.78838 18.1541C8.6351 17.9939 8.51101 17.8031 8.36503 17.6123Z"/>
    </g>
    <defs>
        <clipPath id="clip0">
            <rect width="20" height="27"/>
        </clipPath>
    </defs>
</svg>
