<svg width="20" height="27" viewBox="0 0 20 27" fill="none" xmlns="http://www.w3.org/2000/svg">
<g clip-path="url(#clip0)">
<path fill-rule="evenodd" clip-rule="evenodd" d="M8.36503 17.6124C8.34313 17.6887 8.32123 17.7574 8.30663 17.8185C7.35773 21.7029 7.25554 22.5652 6.27744 24.3739C5.81028 25.2286 5.29203 26.0451 4.70809 26.8235C4.6424 26.9151 4.584 27.022 4.45262 26.9991C4.30663 26.9609 4.29933 26.8312 4.27744 26.7091C4.12415 25.5262 4.03656 24.3433 4.07306 23.1528C4.12415 21.6036 4.30663 21.0694 6.21904 12.652C6.24824 12.5222 6.21904 12.4154 6.17525 12.3009C5.71539 11.0112 5.6278 9.69862 6.02926 8.36312C6.89787 5.4937 10.0074 5.27239 10.5548 7.63813C10.8906 9.10336 10.0001 11.0189 9.32123 13.8577C8.75919 16.193 11.3869 17.8566 13.6424 16.1548C15.7154 14.5827 16.5256 10.8052 16.3723 8.13417C16.0731 2.7998 10.4818 1.64746 6.93437 3.36453C2.86868 5.33344 1.94167 10.5991 3.78109 13.0107C4.01466 13.3159 4.18984 13.5067 4.11685 13.812C4.00006 14.2927 3.89787 14.7811 3.76649 15.2619C3.6716 15.6206 3.38692 15.7503 3.04386 15.6053C2.36503 15.323 1.80298 14.8651 1.34313 14.2775C-0.226215 12.2551 -0.67147 8.26391 1.38692 4.88318C3.6716 1.13615 7.92707 -0.382502 11.803 0.0753841C16.438 0.624847 19.365 3.93689 19.9125 7.69155C20.1607 9.40099 19.9855 13.6212 17.6862 16.6051C15.0439 20.0316 10.7592 20.2605 8.78838 18.1542C8.6351 17.994 8.51101 17.8032 8.36503 17.6124Z" fill="#9E8167"/>
</g>
<defs>
<clipPath id="clip0">
<rect width="20" height="27" fill="white"/>
</clipPath>
</defs>
</svg>
