<svg width="20" height="27" viewBox="0 0 20 27" fill="none" xmlns="http://www.w3.org/2000/svg">
    <g clip-path="url(#clip0)">
        <path fill-rule="evenodd" clip-rule="evenodd" d="M8.36551 17.6124C8.34362 17.6887 8.32172 17.7574 8.30712 17.8185C7.35821 21.7029 7.25603 22.5652 6.27792 24.3739C5.81077 25.2286 5.29252 26.0451 4.70858 26.8235C4.64289 26.9151 4.58449 27.022 4.45311 26.9991C4.30712 26.9609 4.29982 26.8312 4.27792 26.7091C4.12464 25.5262 4.03705 24.3433 4.07354 23.1528C4.12464 21.6036 4.30712 21.0694 6.21953 12.652C6.24873 12.5222 6.21953 12.4154 6.17573 12.3009C5.71588 11.0112 5.62829 9.69862 6.02975 8.36312C6.89836 5.4937 10.0078 5.27239 10.5553 7.63813C10.8911 9.10337 10.0006 11.0189 9.32172 13.8577C8.75968 16.193 11.3874 17.8566 13.6429 16.1548C15.7159 14.5827 16.5261 10.8052 16.3728 8.13417C16.0735 2.79981 10.4823 1.64746 6.93486 3.36453C2.86916 5.33344 1.94216 10.5991 3.78157 13.0107C4.01515 13.3159 4.19033 13.5067 4.11734 13.812C4.00055 14.2927 3.89836 14.7811 3.76697 15.2619C3.67208 15.6206 3.38741 15.7503 3.04435 15.6053C2.36551 15.323 1.80347 14.8651 1.34362 14.2775C-0.225727 12.2551 -0.670982 8.26391 1.38741 4.88318C3.67208 1.13615 7.92756 -0.382502 11.8035 0.0753842C16.4385 0.624847 19.3655 3.93689 19.913 7.69155C20.1611 9.40099 19.986 13.6212 17.6867 16.6051C15.0443 20.0316 10.7597 20.2605 8.78887 18.1542C8.63559 17.994 8.5115 17.8032 8.36551 17.6124Z"/>
    </g>
    <defs>
        <clipPath id="clip0">
            <rect width="20" height="27"/>
        </clipPath>
    </defs>
</svg>
