<svg width="55" height="77" viewBox="0 0 55 77" fill="none" xmlns="http://www.w3.org/2000/svg">
<path d="M43.3736 0H11.6263C5.21957 0 0 5.11328 0 11.3896V65.5904C0 71.8667 5.21957 76.9799 11.6263 76.9799H43.3532C49.76 76.9799 54.9795 71.8667 54.9795 65.5904V11.3896C55 5.11328 49.7804 0 43.3736 0ZM11.6263 5.25365H43.3532C46.8124 5.25365 49.6167 8.00078 49.6167 11.3896V54.8224H5.36286V11.3896C5.36286 8.02083 8.18757 5.25365 11.6263 5.25365ZM43.3736 71.7463H11.6263C8.1671 71.7463 5.36286 68.9992 5.36286 65.6104V60.0961H49.6371V65.6104C49.6371 68.9992 46.8329 71.7463 43.3736 71.7463Z" fill="#9E8167"/>
<path d="M26.7733 12.8333C27.9605 12.8333 28.9225 11.8909 28.9225 10.7278C28.9225 9.56482 27.9605 8.62238 26.7733 8.62238C25.5861 8.62238 24.624 9.56482 24.624 10.7278C24.624 11.8909 25.5861 12.8333 26.7733 12.8333Z" fill="#9E8167"/>
<path d="M26.7733 63.3646C25.5861 63.3646 24.624 64.307 24.624 65.47C24.624 66.6331 25.5861 67.5755 26.7733 67.5755C27.9605 67.5755 28.9225 66.6331 28.9225 65.47C28.9225 64.307 27.9605 63.3646 26.7733 63.3646Z" fill="#9E8167"/>
</svg>
