<svg width="28" height="29" viewBox="0 0 28 29" fill="none" xmlns="http://www.w3.org/2000/svg">
<g clip-path="url(#clip0)">
<path d="M19.918 0.698242H15.1992V19.7707C15.1992 22.0432 13.3843 23.9099 11.1257 23.9099C8.8671 23.9099 7.05218 22.0432 7.05218 19.7707C7.05218 17.5388 8.82677 15.7127 11.0047 15.6316V10.8432C6.20521 10.9243 2.33337 14.8606 2.33337 19.7707C2.33337 24.7215 6.28587 28.6982 11.166 28.6982C16.0461 28.6982 19.9986 24.6809 19.9986 19.7707V9.99098C21.7732 11.2896 23.9511 12.0606 26.25 12.1012V7.31274C22.7009 7.191 19.918 4.26925 19.918 0.698242Z" fill="white"/>
</g>
<defs>
<clipPath id="clip0">
<rect width="28" height="28" fill="white" transform="translate(0 0.698242)"/>
</clipPath>
</defs>
</svg>
