<svg width="195" height="312" viewBox="0 0 195 312" fill="none" xmlns="http://www.w3.org/2000/svg">
<rect width="195" height="312" fill="#EEEEEE"/>
<path d="M107.837 53.2636H77.0839C74.0713 53.7667 73.7366 45.5094 73.9458 41.318C69.4269 40.815 68.7156 41.9467 68.9248 42.5754V74.0114C71.9374 75.5203 73.9458 80.089 74.5734 82.1847V96.0166C69.5524 99.0344 66.6235 110.268 65.7867 115.507L57 248.796C57.6276 251.311 66.0377 256.466 94.6573 256.969C123.277 257.472 128.758 251.73 127.921 248.796C125.62 208.767 120.641 126.069 119.135 115.507C117.628 104.944 112.231 98.1123 109.72 96.0166V82.1847C109.72 78.1609 113.904 75.0592 115.996 74.0114V42.5754C115.996 40.5635 111.812 40.8988 109.72 41.318C110.222 50.8745 108.674 53.2636 107.837 53.2636Z" fill="#FFFEFE" stroke="#888F96" stroke-width="3"/>
</svg>
