<svg width="195" height="312" viewBox="0 0 195 312" fill="none" xmlns="http://www.w3.org/2000/svg">
<rect width="195" height="312" fill="#EEEEEE"/>
<path d="M123.366 41.0346C110.663 51.3027 98.4146 52.3597 93.8781 51.6047C79.361 51.6047 66.6585 44.558 62.122 41.0346C58.4927 41.0346 56.5772 45.5646 56.0732 47.8297L68.1707 56.8897V68.9697C68.1707 72.5937 72.7073 75.5131 74.9756 76.5197V93.1298C72.5561 94.3378 68.4228 102.693 66.6585 106.72C65.4488 117.592 71.6992 143.463 74.9756 155.04C78 174.368 70.6911 190.273 66.6585 195.81C47.3024 229.634 24.8211 243.627 16 246.395C27.3415 250.17 58.7951 257.569 93.8781 256.965C128.961 256.361 159.911 249.667 171 246.395C155.878 242.62 130.927 213.93 118.829 195.81C109.151 181.314 110.26 162.59 112.024 155.04C118.678 136.92 119.333 115.276 118.829 106.72C118.829 101.888 114.293 95.6465 112.024 93.1298V76.5197C116.863 74.1037 118.577 70.4797 118.829 68.9697V56.8897C121.854 55.6817 127.65 50.3463 130.171 47.8297C128.356 41.7896 124.878 40.783 123.366 41.0346Z" fill="#FFFEFE" stroke="#888F96" stroke-width="3"/>
</svg>
