<svg width="195" height="312" viewBox="0 0 195 312" fill="none" xmlns="http://www.w3.org/2000/svg">
<rect width="195" height="312" fill="#EEEEEE"/>
<path d="M120.313 50.6291C108.952 52.4107 103.62 58.3 102.374 61.0219C100.58 57.4586 90.165 52.6087 85.1818 50.6291C82.7899 50.6291 77.2088 47.6597 74.7172 46.175C68.7374 44.9873 65.7475 50.1342 65 52.8561V63.2489H78.4545V71.4146C78.4545 76.7595 81.9428 78.0957 83.6869 78.0957L65 245.123C68.4882 249.082 80.8465 257 102.374 257C123.901 257 135.761 249.082 139 245.123L121.808 78.0957C125.994 77.5018 127.539 73.3942 127.788 71.4146V63.2489H139V52.8561C137.206 46.3235 132.771 45.6802 130.778 46.175C128.984 47.9567 123.054 49.8868 120.313 50.6291Z" fill="#FFFEFE" stroke="#888F96" stroke-width="3"/>
</svg>
