<svg width="195" height="312" viewBox="0 0 195 312" fill="none" xmlns="http://www.w3.org/2000/svg">
<rect width="195" height="312" fill="#EEEEEE"/>
<path d="M124.08 45.2953C121.331 40.8963 105.986 40.713 98.6564 41.1712C92.4724 41.3418 76.6687 41.1712 73.2331 45.2953C70.4847 48.5946 72.0879 55.8347 73.2331 59.0423C78.1804 60.692 79.8753 66.6032 80.1043 69.3526V83.787C72.9583 88.1861 64.7587 121.821 61.5521 138.088L43 243.94C46.2982 245.59 53.5358 247.377 56.7423 248.064V251.501C62.789 253.151 73.9202 254.021 78.7301 254.251V257H98.6564H119.27V254.251C130.813 253.701 138.28 252.189 140.571 251.501V248.064C152.114 246.415 155 244.628 155 243.94L135.761 138.088C129.164 100.696 120.644 86.3073 117.209 83.787V69.3526C117.209 64.4037 121.789 60.417 124.08 59.0423C125.729 54.0934 124.767 47.8156 124.08 45.2953Z" fill="#FFFEFE" stroke="#888F96" stroke-width="3"/>
</svg>
