<svg width="195" height="312" viewBox="0 0 195 312" fill="none" xmlns="http://www.w3.org/2000/svg">
<rect width="195" height="312" fill="#EEEEEE"/>
<path d="M112.844 46C101.182 46 98.2672 55.1739 98.2672 59.7609C98.0115 55.1739 94.5847 46 82.9237 46C68.3473 46 68.3473 68.1703 79.0878 73.5217V88.8116C14.0313 149.359 7.25573 207.818 7 229.478L26.9466 240.181V243.239L36.9198 247.062V249.355C47.1489 251.903 65.7389 257 98.2672 257C130.795 257 149.897 251.903 160.382 249.355V247.062L169.588 243.239V240.181C178.794 237.735 185.698 232.027 188 229.478C181.863 171.377 143.786 112.511 116.679 88.8116V73.5217C126.653 69.6993 127.42 46 112.844 46Z" fill="#FFFEFE" stroke="#888F96" stroke-width="3"/>
</svg>
