<svg width="64" height="64" viewBox="0 0 64 64" fill="none" xmlns="http://www.w3.org/2000/svg">
<g clip-path="url(#clip0)">
<path d="M0 64L4.6064 46.8875C1.9949 42.2024 0.634741 36.9565 0.634741 31.6201C0.616605 14.182 14.8348 0 32.3174 0C49.7999 0 64.0181 14.182 64.0181 31.6201C64.0181 49.0582 49.7999 63.2402 32.3174 63.2402C27.0762 63.2402 21.8895 61.9197 17.2468 59.4053L0 64ZM18.1173 52.9836L19.2054 53.6348C23.1952 56.0045 27.7291 57.2527 32.3174 57.2527C46.4812 57.2527 58.0153 45.7479 58.0153 31.6201C58.0153 17.4924 46.4812 5.98756 32.3174 5.98756C18.1536 5.98756 6.61944 17.4924 6.61944 31.6201C6.61944 36.2872 7.92519 40.8819 10.3735 44.9158L11.0445 46.0011L8.46926 55.5523L18.1173 52.9836Z" fill="#9E8167"/>
<path fill-rule="evenodd" clip-rule="evenodd" d="M44.1055 36.0158C42.7998 35.238 41.095 34.3697 39.5717 35.0028C38.3928 35.4912 37.6312 37.3182 36.8695 38.2589C36.4705 38.7473 36.0171 38.8197 35.4005 38.5664C30.9754 36.8117 27.5841 33.8632 25.1358 29.7931C24.7187 29.16 24.7913 28.6716 25.299 28.0746C26.0426 27.2063 26.9675 26.2295 27.167 25.0537C27.3665 23.8779 26.8224 22.5212 26.3328 21.4901C25.7162 20.1696 25.027 18.2702 23.685 17.5105C22.4518 16.8231 20.8377 17.2029 19.7496 18.0893C17.8635 19.6269 16.9567 22.0147 16.9749 24.4025C16.9749 25.0718 17.0656 25.7592 17.2288 26.4104C17.6096 27.9842 18.335 29.4494 19.1511 30.8423C19.7677 31.8915 20.4387 32.9045 21.1642 33.8994C23.5399 37.1012 26.4779 39.8869 29.8873 41.9853C31.5921 43.0345 33.4237 43.9389 35.328 44.5721C37.4498 45.2775 39.354 46.0011 41.6572 45.567C44.0692 45.1147 46.445 43.6314 47.4062 41.316C47.6963 40.6286 47.8233 39.8688 47.6782 39.1453C47.3518 37.6258 45.3206 36.7394 44.1055 36.0158Z" fill="#9E8167"/>
</g>
<defs>
<clipPath id="clip0">
<rect width="64" height="64" fill="white"/>
</clipPath>
</defs>
</svg>
